<svg width="1180" height="610" viewBox="0 0 1180 610" xmlns="http://www.w3.org/2000/svg">
  <defs>
    <linearGradient id="bgGrad" x1="0%" y1="0%" x2="100%" y2="100%">
      <stop offset="0%" stop-color="#030712"/>
      <stop offset="100%" stop-color="#050B16"/>
    </linearGradient>

    <linearGradient id="accentGrad" x1="0%" y1="0%" x2="100%" y2="0%">
      <stop offset="0%" stop-color="#7C3AED"/>
      <stop offset="50%" stop-color="#22D3EE"/>
      <stop offset="100%" stop-color="#10B981"/>
      <animate attributeName="x1" values="0%;100%;0%" dur="8s" repeatCount="indefinite"/>
      <animate attributeName="x2" values="100%;200%;100%" dur="8s" repeatCount="indefinite"/>
    </linearGradient>

    <linearGradient id="asciiGrad" x1="0%" y1="0%" x2="100%" y2="100%">
      <stop offset="0%" stop-color="#22D3EE"/>
      <stop offset="50%" stop-color="#7C3AED"/>
      <stop offset="100%" stop-color="#22D3EE"/>
      <animate attributeName="x1" values="0%;100%;0%" dur="6s" repeatCount="indefinite"/>
      <animate attributeName="y1" values="0%;100%;0%" dur="6s" repeatCount="indefinite"/>
    </linearGradient>

    <radialGradient id="glowBlue" cx="50%" cy="50%" r="50%">
      <stop offset="0%" stop-color="#22D3EE" stop-opacity="0.25"/>
      <stop offset="100%" stop-color="#22D3EE" stop-opacity="0"/>
    </radialGradient>
    <radialGradient id="glowPurple" cx="50%" cy="50%" r="50%">
      <stop offset="0%" stop-color="#7C3AED" stop-opacity="0.22"/>
      <stop offset="100%" stop-color="#7C3AED" stop-opacity="0"/>
    </radialGradient>
    <radialGradient id="glowEmerald" cx="50%" cy="50%" r="50%">
      <stop offset="0%" stop-color="#10B981" stop-opacity="0.14"/>
      <stop offset="100%" stop-color="#10B981" stop-opacity="0"/>
    </radialGradient>

    <linearGradient id="glassPanel" x1="0%" y1="0%" x2="0%" y2="100%">
      <stop offset="0%" stop-color="#0F172A" stop-opacity="0.9"/>
      <stop offset="100%" stop-color="#0F172A" stop-opacity="0.7"/>
    </linearGradient>

    <linearGradient id="pillGrad" x1="0%" y1="0%" x2="100%" y2="0%">
      <stop offset="0%" stop-color="#7C3AED" stop-opacity="0.18"/>
      <stop offset="100%" stop-color="#22D3EE" stop-opacity="0.18"/>
    </linearGradient>

    <filter id="glowFilter" x="-100%" y="-100%" width="300%" height="300%">
      <feGaussianBlur stdDeviation="3.2" result="blur"/>
      <feMerge>
        <feMergeNode in="blur"/>
        <feMergeNode in="SourceGraphic"/>
      </feMerge>
    </filter>

    <clipPath id="canvasClip">
      <rect x="0" y="0" width="1180" height="610" rx="28"/>
    </clipPath>
    <clipPath id="leftClip">
      <rect x="0" y="0" width="448" height="610" rx="28"/>
    </clipPath>

    <filter id="noiseFilter">
      <feTurbulence type="fractalNoise" baseFrequency="0.9" numOctaves="2" stitchTiles="stitch" result="noise"/>
      <feColorMatrix in="noise" type="matrix" values="0 0 0 0 1  0 0 0 0 1  0 0 0 0 1  0 0 0 0.02 0"/>
    </filter>

    <filter id="headBlur" x="-60%" y="-60%" width="220%" height="220%">
      <feGaussianBlur stdDeviation="14"/>
    </filter>

    <clipPath id="headSquareClip">
      <rect x="54" y="78" width="320" height="320" rx="20"/>
    </clipPath>
  </defs>


  <g clip-path="url(#canvasClip)">
    <rect x="0" y="0" width="1180" height="610" fill="url(#bgGrad)"/>
    <rect x="0" y="0" width="1180" height="610" filter="url(#noiseFilter)" opacity="0.5"/>

    <circle cx="150" cy="120" r="220" fill="url(#glowPurple)">
      <animate attributeName="cy" values="120;160;120" dur="9s" repeatCount="indefinite"/>
    </circle>
    <circle cx="950" cy="480" r="260" fill="url(#glowBlue)">
      <animate attributeName="cy" values="480;430;480" dur="10s" repeatCount="indefinite"/>
    </circle>
    <circle cx="700" cy="80" r="180" fill="url(#glowEmerald)">
      <animate attributeName="cx" values="700;760;700" dur="11s" repeatCount="indefinite"/>
    </circle>

    <g fill="#22D3EE" opacity="0.5">
      <circle cx="120" cy="480" r="1.6">
        <animate attributeName="cy" values="480;440;480" dur="7s" repeatCount="indefinite"/>
        <animate attributeName="opacity" values="0.2;0.8;0.2" dur="7s" repeatCount="indefinite"/>
      </circle>
      <circle cx="380" cy="90" r="1.4">
        <animate attributeName="cy" values="90;140;90" dur="8.5s" repeatCount="indefinite"/>
        <animate attributeName="opacity" values="0.15;0.7;0.15" dur="8.5s" repeatCount="indefinite"/>
      </circle>
      <circle cx="1000" cy="140" r="1.8">
        <animate attributeName="cy" values="140;100;140" dur="6.5s" repeatCount="indefinite"/>
        <animate attributeName="opacity" values="0.2;0.75;0.2" dur="6.5s" repeatCount="indefinite"/>
      </circle>
      <circle cx="820" cy="540" r="1.4">
        <animate attributeName="cy" values="540;500;540" dur="9.5s" repeatCount="indefinite"/>
        <animate attributeName="opacity" values="0.15;0.65;0.15" dur="9.5s" repeatCount="indefinite"/>
      </circle>
      <circle cx="550" cy="330" r="1.3">
        <animate attributeName="cx" values="550;600;550" dur="10s" repeatCount="indefinite"/>
        <animate attributeName="opacity" values="0.2;0.6;0.2" dur="10s" repeatCount="indefinite"/>
      </circle>
    </g>

    <rect x="0" y="0" width="1180" height="2" fill="#22D3EE" opacity="0.08">
      <animate attributeName="y" values="0;610;0" dur="7s" repeatCount="indefinite"/>
    </rect>

    <rect x="2" y="2" width="1176" height="606" rx="26" fill="none" stroke="url(#accentGrad)" stroke-width="1.4" opacity="0.55"/>
    <rect x="2" y="2" width="1176" height="606" rx="26" fill="none" stroke="rgba(255,255,255,0.08)" stroke-width="1"/>

    <!-- ============ LEFT SIDE — ASCII TERMINAL PORTRAIT ============ -->
    <g clip-path="url(#leftClip)">
      <rect x="0" y="0" width="448" height="610" fill="#070B16" opacity="0.55"/>
      <rect x="0" y="0" width="448" height="610" fill="url(#glassPanel)" opacity="0.25"/>

      <!-- Square block containing blurred head silhouette -->
      <rect x="54" y="78" width="320" height="320" rx="20" fill="url(#glassPanel)" stroke="rgba(255,255,255,0.08)" stroke-width="1" opacity="1">
        <animate attributeName="opacity" values="0;1" begin="0.1s" dur="0.5s" fill="freeze"/>
      </rect>
      <rect x="54" y="78" width="320" height="320" rx="20" fill="none" stroke="url(#accentGrad)" stroke-width="1.2" opacity="0.5"/>

      <g clip-path="url(#headSquareClip)">
        <g fill="url(#asciiGrad)" filter="url(#headBlur)" opacity="0.9">
          <animate attributeName="opacity" values="0;0.9" begin="0.3s" dur="1s" fill="freeze"/>
          <circle cx="214" cy="205" r="66"/>
          <path d="M 128 398 Q 128 268 214 268 Q 300 268 300 398 Z"/>
        </g>

        <rect x="54" y="78" width="320" height="2.5" fill="#22D3EE" opacity="0.35">
          <animate attributeName="y" values="78;396;78" dur="4.5s" repeatCount="indefinite"/>
        </rect>
      </g>

      <text x="60" y="66" opacity="1" font-family="'JetBrains Mono','Fira Code',monospace" font-size="10.5" letter-spacing="1.5" fill="#22D3EE">
        <animate attributeName="opacity" values="0;1" begin="1.3s" dur="0.4s" fill="freeze"/>
        [ SCANNING... ]
      </text>

      <g font-family="'JetBrains Mono','Fira Code',monospace" font-size="12.6" fill="url(#asciiGrad)" filter="url(#glowFilter)">
        <text x="46" y="428" opacity="1" font-size="11.4">
          <animate attributeName="opacity" values="0;1" begin="1.7s" dur="0.4s" fill="freeze"/>
          &gt; whoami
        </text>
        <text x="46" y="446" opacity="1" font-size="11.4">
          <animate attributeName="opacity" values="0;1" begin="2.0s" dur="0.4s" fill="freeze"/>
          payalmalley
        </text>
        <text x="46" y="464" opacity="1" font-size="11.4">
          <animate attributeName="opacity" values="0;1" begin="2.3s" dur="0.4s" fill="freeze"/>
          &gt; role: SDE / AI-ML Engineer
        </text>
        <text x="46" y="482" opacity="1" font-size="11.4">
          <animate attributeName="opacity" values="0;1" begin="2.6s" dur="0.4s" fill="freeze"/>
          &gt; status: online<tspan opacity="0"><animate attributeName="opacity" values="1;0;1" dur="1s" repeatCount="indefinite"/>█</tspan>
        </text>
      </g>

      <line x1="448" y1="0" x2="448" y2="610" stroke="rgba(255,255,255,0.08)" stroke-width="1"/>
    </g>

    <!-- ============ RIGHT SIDE — TERMINAL WINDOW ============ -->
    <g font-family="'JetBrains Mono','Fira Code',monospace">
      <rect x="480" y="36" width="668" height="538" rx="16" fill="url(#glassPanel)" stroke="rgba(255,255,255,0.08)" stroke-width="1"/>
      <rect x="480" y="36" width="668" height="538" rx="16" fill="none" stroke="url(#accentGrad)" stroke-width="1" opacity="0.35"/>

      <rect x="480" y="36" width="668" height="34" rx="16" fill="#0B1220" opacity="0.9"/>
      <rect x="480" y="54" width="668" height="16" fill="#0B1220" opacity="0.9"/>
      <circle cx="504" cy="53" r="5.5" fill="#FF5F56"/>
      <circle cx="522" cy="53" r="5.5" fill="#FFBD2E"/>
      <circle cx="540" cy="53" r="5.5" fill="#27C93F"/>
      <text x="814" y="57" text-anchor="middle" font-size="11.5" fill="#94A3B8" letter-spacing="0.5">payal@github ~ profile.sh</text>

      <text x="510" y="102" font-size="19" font-weight="700" fill="#F8FAFC" opacity="1">
        <animate attributeName="opacity" values="0;1" begin="0.3s" dur="0.5s" fill="freeze"/>
        Hi 👋
      </text>
      <text x="510" y="130" font-size="22" font-weight="700" fill="#F8FAFC" opacity="1">
        <animate attributeName="opacity" values="0;1" begin="0.7s" dur="0.5s" fill="freeze"/>
        I'm <tspan fill="url(#accentGrad)">Payal</tspan>
      </text>

      <g font-size="14" fill="#22D3EE" filter="url(#glowFilter)">
        <text x="510" y="158">
          <tspan opacity="0">
            <animate attributeName="opacity" values="0;1;1;1;0" keyTimes="0;0.02;0.23;0.25;0.27" dur="18s" repeatCount="indefinite" begin="1.2s"/>
            AI &amp; ML Undergraduate
          </tspan>
          <tspan opacity="0">
            <animate attributeName="opacity" values="0;0;1;1;0" keyTimes="0;0.25;0.27;0.48;0.50" dur="18s" repeatCount="indefinite" begin="1.2s"/>
            Java Developer
          </tspan>
          <tspan opacity="0">
            <animate attributeName="opacity" values="0;0;1;1;0" keyTimes="0;0.50;0.52;0.73;0.75" dur="18s" repeatCount="indefinite" begin="1.2s"/>
            DSA Learner · 250+ Problems Solved
          </tspan>
          <tspan opacity="0">
            <animate attributeName="opacity" values="0;0;1;1;0" keyTimes="0;0.75;0.77;0.98;1" dur="18s" repeatCount="indefinite" begin="1.2s"/>
            Building Software &amp; AI Projects
          </tspan>
          <tspan fill="#F8FAFC" opacity="1">
            <animate attributeName="opacity" values="1;0;1" dur="0.9s" repeatCount="indefinite"/>
            &#9612;
          </tspan>
        </text>
      </g>

      <line x1="510" y1="178" x2="1118" y2="178" stroke="rgba(255,255,255,0.08)" stroke-width="1"/>

      <g font-size="13" fill="#94A3B8">
        <text x="510" y="204" opacity="1">
          <animate attributeName="opacity" values="0;1" begin="1.6s" dur="0.4s" fill="freeze"/>
          <tspan fill="#22D3EE">📍 Location</tspan><tspan dx="10" fill="#F8FAFC">Una, Himachal Pradesh, India</tspan>
        </text>
        <text x="510" y="228" opacity="1">
          <animate attributeName="opacity" values="0;1" begin="1.9s" dur="0.4s" fill="freeze"/>
          <tspan fill="#7C3AED">🎓 Education</tspan><tspan dx="6" fill="#F8FAFC">B.Tech CSE (AI &amp; ML), Bahra University</tspan>
        </text>
        <text x="510" y="252" opacity="1">
          <animate attributeName="opacity" values="0;1" begin="2.2s" dur="0.4s" fill="freeze"/>
          <tspan fill="#10B981">🎯 Focus</tspan><tspan dx="16" fill="#F8FAFC">LLMs, RAG, Deep Learning &amp; Full-Stack Dev</tspan>
        </text>
        <text x="510" y="276" opacity="1">
          <animate attributeName="opacity" values="0;1" begin="2.5s" dur="0.4s" fill="freeze"/>
          <tspan fill="#22D3EE">🔗 GitHub</tspan><tspan dx="10" fill="#F8FAFC">github.com/payalmalley</tspan>
        </text>
        <text x="510" y="300" opacity="1">
          <animate attributeName="opacity" values="0;1" begin="2.8s" dur="0.4s" fill="freeze"/>
          <tspan fill="#7C3AED">✉ Email</tspan><tspan dx="10" fill="#F8FAFC">payalmalley3366@gmail.com</tspan>
        </text>
      </g>

      <text x="510" y="336" font-size="13" font-weight="700" fill="#F8FAFC" opacity="1">
        <animate attributeName="opacity" values="0;1" begin="3.0s" dur="0.4s" fill="freeze"/>
        Skills
      </text>

      <g font-size="12" font-family="'Inter','Segoe UI',sans-serif" opacity="1">
        <animate attributeName="opacity" values="0;1" begin="3.2s" dur="0.5s" fill="freeze"/>

        <g>
          <rect x="510" y="350" width="58" height="27" rx="13.5" fill="url(#pillGrad)" stroke="#7C3AED" stroke-width="1" opacity="0.7">
            <animate attributeName="opacity" values="0.6;0.9;0.6" dur="3s" repeatCount="indefinite"/>
          </rect>
          <text x="539" y="368" text-anchor="middle" fill="#F8FAFC">Java</text>
        </g>
        <g>
          <rect x="574" y="350" width="70" height="27" rx="13.5" fill="url(#pillGrad)" stroke="#22D3EE" stroke-width="1" opacity="0.7">
            <animate attributeName="opacity" values="0.6;0.9;0.6" dur="3.4s" repeatCount="indefinite"/>
          </rect>
          <text x="609" y="368" text-anchor="middle" fill="#F8FAFC">Python</text>
        </g>
        <g>
          <rect x="650" y="350" width="90" height="27" rx="13.5" fill="url(#pillGrad)" stroke="#10B981" stroke-width="1" opacity="0.7">
            <animate attributeName="opacity" values="0.6;0.9;0.6" dur="3.8s" repeatCount="indefinite"/>
          </rect>
          <text x="695" y="368" text-anchor="middle" fill="#F8FAFC">TensorFlow</text>
        </g>
        <g>
          <rect x="746" y="350" width="82" height="27" rx="13.5" fill="url(#pillGrad)" stroke="#7C3AED" stroke-width="1" opacity="0.7">
            <animate attributeName="opacity" values="0.6;0.9;0.6" dur="3.2s" repeatCount="indefinite"/>
          </rect>
          <text x="787" y="368" text-anchor="middle" fill="#F8FAFC">PyTorch</text>
        </g>
        <g>
          <rect x="834" y="350" width="72" height="27" rx="13.5" fill="url(#pillGrad)" stroke="#22D3EE" stroke-width="1" opacity="0.7">
            <animate attributeName="opacity" values="0.6;0.9;0.6" dur="3.6s" repeatCount="indefinite"/>
          </rect>
          <text x="870" y="368" text-anchor="middle" fill="#F8FAFC">LangChain</text>
        </g>
        <g>
          <rect x="912" y="350" width="52" height="27" rx="13.5" fill="url(#pillGrad)" stroke="#10B981" stroke-width="1" opacity="0.7">
            <animate attributeName="opacity" values="0.6;0.9;0.6" dur="4s" repeatCount="indefinite"/>
          </rect>
          <text x="938" y="368" text-anchor="middle" fill="#F8FAFC">SQL</text>
        </g>
        <g>
          <rect x="970" y="350" width="52" height="27" rx="13.5" fill="url(#pillGrad)" stroke="#7C3AED" stroke-width="1" opacity="0.7">
            <animate attributeName="opacity" values="0.6;0.9;0.6" dur="3.5s" repeatCount="indefinite"/>
          </rect>
          <text x="996" y="368" text-anchor="middle" fill="#F8FAFC">Git</text>
        </g>
        <g>
          <rect x="1028" y="350" width="78" height="27" rx="13.5" fill="url(#pillGrad)" stroke="#22D3EE" stroke-width="1" opacity="0.7">
            <animate attributeName="opacity" values="0.6;0.9;0.6" dur="3.9s" repeatCount="indefinite"/>
          </rect>
          <text x="1067" y="368" text-anchor="middle" fill="#F8FAFC">GitHub</text>
        </g>
      </g>

      <text x="510" y="412" font-size="13" font-weight="700" fill="#F8FAFC" opacity="1">
        <animate attributeName="opacity" values="0;1" begin="3.4s" dur="0.4s" fill="freeze"/>
        Currently Building
      </text>
      <g font-size="12.5" fill="#94A3B8" font-family="'Inter','Segoe UI',sans-serif" opacity="1">
        <animate attributeName="opacity" values="0;1" begin="3.7s" dur="0.4s" fill="freeze"/>
        <text x="510" y="434"><tspan fill="#10B981">▹</tspan> AI Assistant using LLMs + RAG (LangChain, Vector DB)</text>
        <text x="510" y="454"><tspan fill="#10B981">▹</tspan> ML-based Student Performance Predictor</text>
        <text x="510" y="474"><tspan fill="#10B981">▹</tspan> Data Automation &amp; Cleaning Pipeline</text>
      </g>

      <line x1="510" y1="494" x2="1118" y2="494" stroke="rgba(255,255,255,0.08)" stroke-width="1"/>

      <g opacity="1">
        <animate attributeName="opacity" values="0;1" begin="4.0s" dur="0.5s" fill="freeze"/>

        <g filter="url(#glowFilter)">
          <circle cx="530" cy="522" r="17" fill="#0B1220" stroke="#22D3EE" stroke-width="1.2" opacity="0.8">
            <animate attributeName="r" values="17;18.5;17" dur="3s" repeatCount="indefinite"/>
          </circle>
          <path transform="translate(519.5,511.5) scale(0.44)" fill="#F8FAFC" d="M12 .3a12 12 0 0 0-3.79 23.4c.6.11.82-.26.82-.58v-2.2c-3.34.73-4.04-1.61-4.04-1.61-.55-1.39-1.34-1.76-1.34-1.76-1.09-.75.08-.73.08-.73 1.2.08 1.84 1.24 1.84 1.24 1.07 1.84 2.81 1.3 3.5 1 .11-.78.42-1.3.76-1.6-2.67-.3-5.47-1.33-5.47-5.93 0-1.31.47-2.38 1.24-3.22-.12-.3-.54-1.52.12-3.18 0 0 1.01-.32 3.3 1.23a11.5 11.5 0 0 1 6 0c2.29-1.55 3.3-1.23 3.3-1.23.66 1.66.24 2.88.12 3.18.77.84 1.23 1.91 1.23 3.22 0 4.61-2.8 5.63-5.48 5.92.43.37.81 1.1.81 2.22v3.29c0 .32.22.7.83.58A12 12 0 0 0 12 .3Z"/>
        </g>

        <g filter="url(#glowFilter)">
          <circle cx="582" cy="522" r="17" fill="#0B1220" stroke="#7C3AED" stroke-width="1.2" opacity="0.8">
            <animate attributeName="r" values="17;18.5;17" dur="3.3s" repeatCount="indefinite"/>
          </circle>
          <path transform="translate(571.5,511.5) scale(0.0215)" fill="#F8FAFC" d="M100.28 448H7.4V148.9h92.88zM53.79 108.1C24.09 108.1 0 83.5 0 53.8a53.79 53.79 0 0 1 107.58 0c0 29.7-24.1 54.3-53.79 54.3zM447.9 448h-92.68V302.4c0-34.7-.7-79.2-48.29-79.2-48.29 0-55.69 37.7-55.69 76.7V448h-92.78V148.9h89.08v40.8h1.3c12.4-23.5 42.69-48.3 87.88-48.3 94 0 111.28 61.9 111.28 142.3z"/>
        </g>

        <g filter="url(#glowFilter)">
          <circle cx="634" cy="522" r="17" fill="#0B1220" stroke="#10B981" stroke-width="1.2" opacity="0.8">
            <animate attributeName="r" values="17;18.5;17" dur="3.1s" repeatCount="indefinite"/>
          </circle>
          <text x="634" y="527" text-anchor="middle" font-size="13" fill="#F8FAFC" font-weight="700">@</text>
        </g>

        <g filter="url(#glowFilter)">
          <circle cx="686" cy="522" r="17" fill="#0B1220" stroke="#22D3EE" stroke-width="1.2" opacity="0.8">
            <animate attributeName="r" values="17;18.5;17" dur="3.5s" repeatCount="indefinite"/>
          </circle>
          <circle cx="686" cy="522" r="7.5" fill="none" stroke="#F8FAFC" stroke-width="1.3"/>
          <line x1="678.5" y1="522" x2="693.5" y2="522" stroke="#F8FAFC" stroke-width="1.1"/>
          <path d="M686 514.5 Q691.5 522 686 529.5 Q680.5 522 686 514.5 Z" fill="none" stroke="#F8FAFC" stroke-width="1.1"/>
        </g>

        <text x="713" y="527" font-size="12.5" fill="#94A3B8" font-family="'Inter','Segoe UI',sans-serif">github.com/payalmalley · linkedin.com/in/payaldev</text>

        <text x="510" y="562" font-size="11" fill="#475569" font-family="'Inter','Segoe UI',sans-serif">Learning consistently. Building with purpose.</text>
      </g>
    </g>

    <rect x="-200" y="0" width="200" height="610" fill="rgba(255,255,255,0.03)" transform="skewX(-20)">
      <animate attributeName="x" values="-200;1400" dur="10s" repeatCount="indefinite"/>
    </rect>
  </g>
</svg>
